<svg id="visual" viewBox="0 0 1400 3000" width="1400" height="3000" xmlns="http://www.w3.org/2000/svg" xmlns:xlink="http://www.w3.org/1999/xlink" version="1.1"><g stroke-width="1" stroke-linejoin="bevel"><path d="M761 1553L775 1467L641 1418Z" fill="#ffffff" stroke="#ffffff"></path><path d="M641 1418L547 1608L761 1553Z" fill="#e4e3e3" stroke="#e4e3e3"></path><path d="M641 1418L461 1429L547 1608Z" fill="#e8e8e8" stroke="#e8e8e8"></path><path d="M461 1429L442 1533L547 1608Z" fill="#f6f6f6" stroke="#f6f6f6"></path><path d="M342 1830L621 1755L547 1608Z" fill="#f1f1f1" stroke="#f1f1f1"></path><path d="M547 1608L621 1755L761 1553Z" fill="#ededed" stroke="#ededed"></path><path d="M736 1195L659 1199L641 1418Z" fill="#d2d1d1" stroke="#d2d1d1"></path><path d="M641 1418L659 1199L461 1429Z" fill="#ffffff" stroke="#ffffff"></path><path d="M775 1467L736 1195L641 1418Z" fill="#e4e3e3" stroke="#e4e3e3"></path><path d="M856 1845L986 1610L761 1553Z" fill="#dbdada" stroke="#dbdada"></path><path d="M761 1553L986 1610L775 1467Z" fill="#ffffff" stroke="#ffffff"></path><path d="M775 1467L973 1223L736 1195Z" fill="#dbdada" stroke="#dbdada"></path><path d="M621 1755L856 1845L761 1553Z" fill="#ededed" stroke="#ededed"></path><path d="M986 1610L1066 1385L775 1467Z" fill="#ffffff" stroke="#ffffff"></path><path d="M1066 1385L973 1223L775 1467Z" fill="#ffffff" stroke="#ffffff"></path><path d="M856 1845L936 1854L986 1610Z" fill="#dbdada" stroke="#dbdada"></path><path d="M986 1610L1148 1408L1066 1385Z" fill="#f6f6f6" stroke="#f6f6f6"></path><path d="M560 1041L342 1186L659 1199Z" fill="#d2d1d1" stroke="#d2d1d1"></path><path d="M659 1199L342 1186L461 1429Z" fill="#dbdada" stroke="#dbdada"></path><path d="M461 1429L149 1397L442 1533Z" fill="#e4e3e3" stroke="#e4e3e3"></path><path d="M1162 1636L1148 1408L986 1610Z" fill="#f1f1f1" stroke="#f1f1f1"></path><path d="M1066 1385L1212 1261L973 1223Z" fill="#e4e3e3" stroke="#e4e3e3"></path><path d="M861 1045L560 1041L736 1195Z" fill="#d6d6d6" stroke="#d6d6d6"></path><path d="M736 1195L560 1041L659 1199Z" fill="#ededed" stroke="#ededed"></path><path d="M161 1656L342 1830L442 1533Z" fill="#ffffff" stroke="#ffffff"></path><path d="M442 1533L342 1830L547 1608Z" fill="#e8e8e8" stroke="#e8e8e8"></path><path d="M621 1755L733 1989L856 1845Z" fill="#d2d1d1" stroke="#d2d1d1"></path><path d="M856 1845L733 1989L936 1854Z" fill="#dfdfdf" stroke="#dfdfdf"></path><path d="M952 942L861 1045L973 1223Z" fill="#ededed" stroke="#ededed"></path><path d="M973 1223L861 1045L736 1195Z" fill="#ffffff" stroke="#ffffff"></path><path d="M936 1854L1162 1636L986 1610Z" fill="#d6d6d6" stroke="#d6d6d6"></path><path d="M575 2057L733 1989L621 1755Z" fill="#e8e8e8" stroke="#e8e8e8"></path><path d="M342 1830L401 1939L621 1755Z" fill="#dbdada" stroke="#dbdada"></path><path d="M342 1186L149 1397L461 1429Z" fill="#e8e8e8" stroke="#e8e8e8"></path><path d="M149 1397L161 1656L442 1533Z" fill="#dbdada" stroke="#dbdada"></path><path d="M342 1830L159 1934L401 1939Z" fill="#e4e3e3" stroke="#e4e3e3"></path><path d="M161 1656L237 1817L342 1830Z" fill="#dbdada" stroke="#dbdada"></path><path d="M572 734L444 984L560 1041Z" fill="#ededed" stroke="#ededed"></path><path d="M560 1041L444 984L342 1186Z" fill="#d6d6d6" stroke="#d6d6d6"></path><path d="M342 1186L190 1169L149 1397Z" fill="#ededed" stroke="#ededed"></path><path d="M401 1939L575 2057L621 1755Z" fill="#fafafa" stroke="#fafafa"></path><path d="M1400 1398L1212 1261L1148 1408Z" fill="#ffffff" stroke="#ffffff"></path><path d="M1148 1408L1212 1261L1066 1385Z" fill="#d2d1d1" stroke="#d2d1d1"></path><path d="M162 1023L190 1169L342 1186Z" fill="#d6d6d6" stroke="#d6d6d6"></path><path d="M936 1854L1241 1760L1162 1636Z" fill="#e4e3e3" stroke="#e4e3e3"></path><path d="M1162 1636L1400 1592L1148 1408Z" fill="#d6d6d6" stroke="#d6d6d6"></path><path d="M1230 1990L1241 1760L936 1854Z" fill="#e8e8e8" stroke="#e8e8e8"></path><path d="M1247 1044L952 942L973 1223Z" fill="#ffffff" stroke="#ffffff"></path><path d="M861 1045L791 783L560 1041Z" fill="#ededed" stroke="#ededed"></path><path d="M336 2222L592 2152L575 2057Z" fill="#d2d1d1" stroke="#d2d1d1"></path><path d="M575 2057L592 2152L733 1989Z" fill="#fafafa" stroke="#fafafa"></path><path d="M733 1989L1042 2062L936 1854Z" fill="#f1f1f1" stroke="#f1f1f1"></path><path d="M336 2222L575 2057L401 1939Z" fill="#d6d6d6" stroke="#d6d6d6"></path><path d="M798 2263L1042 2062L733 1989Z" fill="#d2d1d1" stroke="#d2d1d1"></path><path d="M0 1828L159 1934L237 1817Z" fill="#fafafa" stroke="#fafafa"></path><path d="M237 1817L159 1934L342 1830Z" fill="#dfdfdf" stroke="#dfdfdf"></path><path d="M0 1828L237 1817L161 1656Z" fill="#d6d6d6" stroke="#d6d6d6"></path><path d="M0 1189L0 1414L149 1397Z" fill="#fafafa" stroke="#fafafa"></path><path d="M149 1397L0 1643L161 1656Z" fill="#f1f1f1" stroke="#f1f1f1"></path><path d="M0 1414L0 1643L149 1397Z" fill="#d2d1d1" stroke="#d2d1d1"></path><path d="M444 984L162 1023L342 1186Z" fill="#f6f6f6" stroke="#f6f6f6"></path><path d="M190 1169L0 1189L149 1397Z" fill="#fafafa" stroke="#fafafa"></path><path d="M1400 1773L1400 1592L1241 1760Z" fill="#d2d1d1" stroke="#d2d1d1"></path><path d="M1241 1760L1400 1592L1162 1636Z" fill="#fafafa" stroke="#fafafa"></path><path d="M1400 1592L1400 1398L1148 1408Z" fill="#f1f1f1" stroke="#f1f1f1"></path><path d="M1212 1261L1247 1044L973 1223Z" fill="#dbdada" stroke="#dbdada"></path><path d="M1400 1145L1247 1044L1212 1261Z" fill="#dfdfdf" stroke="#dfdfdf"></path><path d="M1065 767L791 783L952 942Z" fill="#e8e8e8" stroke="#e8e8e8"></path><path d="M952 942L791 783L861 1045Z" fill="#fafafa" stroke="#fafafa"></path><path d="M444 984L173 836L162 1023Z" fill="#ffffff" stroke="#ffffff"></path><path d="M1042 2062L1230 1990L936 1854Z" fill="#e8e8e8" stroke="#e8e8e8"></path><path d="M162 1023L0 1189L190 1169Z" fill="#d2d1d1" stroke="#d2d1d1"></path><path d="M0 1643L0 1828L161 1656Z" fill="#dfdfdf" stroke="#dfdfdf"></path><path d="M1400 1939L1400 1773L1241 1760Z" fill="#d2d1d1" stroke="#d2d1d1"></path><path d="M791 783L572 734L560 1041Z" fill="#d2d1d1" stroke="#d2d1d1"></path><path d="M747 2347L798 2263L592 2152Z" fill="#dbdada" stroke="#dbdada"></path><path d="M592 2152L798 2263L733 1989Z" fill="#dfdfdf" stroke="#dfdfdf"></path><path d="M1042 2062L1137 2216L1230 1990Z" fill="#e4e3e3" stroke="#e4e3e3"></path><path d="M572 734L408 769L444 984Z" fill="#fafafa" stroke="#fafafa"></path><path d="M162 1023L0 995L0 1189Z" fill="#ededed" stroke="#ededed"></path><path d="M798 2263L1061 2193L1042 2062Z" fill="#d6d6d6" stroke="#d6d6d6"></path><path d="M1400 1398L1400 1145L1212 1261Z" fill="#dbdada" stroke="#dbdada"></path><path d="M195 2249L336 2222L159 1934Z" fill="#fafafa" stroke="#fafafa"></path><path d="M159 1934L336 2222L401 1939Z" fill="#d6d6d6" stroke="#d6d6d6"></path><path d="M1215 846L952 942L1247 1044Z" fill="#fafafa" stroke="#fafafa"></path><path d="M1215 846L1065 767L952 942Z" fill="#d6d6d6" stroke="#d6d6d6"></path><path d="M760 620L560 633L572 734Z" fill="#f1f1f1" stroke="#f1f1f1"></path><path d="M1400 970L1215 846L1247 1044Z" fill="#dfdfdf" stroke="#dfdfdf"></path><path d="M408 769L173 836L444 984Z" fill="#d6d6d6" stroke="#d6d6d6"></path><path d="M1400 2228L1400 1939L1230 1990Z" fill="#dfdfdf" stroke="#dfdfdf"></path><path d="M1230 1990L1400 1939L1241 1760Z" fill="#dbdada" stroke="#dbdada"></path><path d="M995 2467L1137 2216L1061 2193Z" fill="#e4e3e3" stroke="#e4e3e3"></path><path d="M1061 2193L1137 2216L1042 2062Z" fill="#ffffff" stroke="#ffffff"></path><path d="M173 836L0 995L162 1023Z" fill="#ffffff" stroke="#ffffff"></path><path d="M586 2443L747 2347L592 2152Z" fill="#dbdada" stroke="#dbdada"></path><path d="M798 2263L995 2467L1061 2193Z" fill="#f1f1f1" stroke="#f1f1f1"></path><path d="M572 734L560 633L408 769Z" fill="#f6f6f6" stroke="#f6f6f6"></path><path d="M408 769L220 576L173 836Z" fill="#e8e8e8" stroke="#e8e8e8"></path><path d="M760 620L572 734L791 783Z" fill="#e4e3e3" stroke="#e4e3e3"></path><path d="M1018 634L760 620L791 783Z" fill="#f1f1f1" stroke="#f1f1f1"></path><path d="M1400 1145L1400 970L1247 1044Z" fill="#f6f6f6" stroke="#f6f6f6"></path><path d="M0 1828L0 2063L159 1934Z" fill="#fafafa" stroke="#fafafa"></path><path d="M0 2063L195 2249L159 1934Z" fill="#dfdfdf" stroke="#dfdfdf"></path><path d="M336 2222L434 2409L592 2152Z" fill="#f6f6f6" stroke="#f6f6f6"></path><path d="M1065 767L1018 634L791 783Z" fill="#f1f1f1" stroke="#f1f1f1"></path><path d="M1181 602L1018 634L1065 767Z" fill="#f6f6f6" stroke="#f6f6f6"></path><path d="M1181 602L1065 767L1215 846Z" fill="#e8e8e8" stroke="#e8e8e8"></path><path d="M394 405L427 605L579 369Z" fill="#f1f1f1" stroke="#f1f1f1"></path><path d="M560 633L427 605L408 769Z" fill="#f6f6f6" stroke="#f6f6f6"></path><path d="M191 2397L434 2409L336 2222Z" fill="#dbdada" stroke="#dbdada"></path><path d="M434 2409L586 2443L592 2152Z" fill="#dfdfdf" stroke="#dfdfdf"></path><path d="M747 2347L995 2467L798 2263Z" fill="#fafafa" stroke="#fafafa"></path><path d="M0 2063L0 2177L195 2249Z" fill="#ffffff" stroke="#ffffff"></path><path d="M195 2249L191 2397L336 2222Z" fill="#d2d1d1" stroke="#d2d1d1"></path><path d="M0 638L0 790L173 836Z" fill="#d2d1d1" stroke="#d2d1d1"></path><path d="M173 836L0 790L0 995Z" fill="#ededed" stroke="#ededed"></path><path d="M1400 970L1400 801L1215 846Z" fill="#e8e8e8" stroke="#e8e8e8"></path><path d="M806 2643L995 2467L747 2347Z" fill="#f1f1f1" stroke="#f1f1f1"></path><path d="M1137 2216L1400 2228L1230 1990Z" fill="#dfdfdf" stroke="#dfdfdf"></path><path d="M1197 2406L1400 2228L1137 2216Z" fill="#ffffff" stroke="#ffffff"></path><path d="M1400 633L1181 602L1215 846Z" fill="#ededed" stroke="#ededed"></path><path d="M1018 634L866 425L760 620Z" fill="#d6d6d6" stroke="#d6d6d6"></path><path d="M394 405L220 576L427 605Z" fill="#f6f6f6" stroke="#f6f6f6"></path><path d="M0 2455L191 2397L195 2249Z" fill="#f6f6f6" stroke="#f6f6f6"></path><path d="M380 2624L649 2643L586 2443Z" fill="#f6f6f6" stroke="#f6f6f6"></path><path d="M427 605L220 576L408 769Z" fill="#f1f1f1" stroke="#f1f1f1"></path><path d="M579 369L560 633L760 620Z" fill="#d6d6d6" stroke="#d6d6d6"></path><path d="M995 2467L1197 2406L1137 2216Z" fill="#f1f1f1" stroke="#f1f1f1"></path><path d="M1026 426L866 425L1018 634Z" fill="#f6f6f6" stroke="#f6f6f6"></path><path d="M220 576L0 638L173 836Z" fill="#d2d1d1" stroke="#d2d1d1"></path><path d="M1400 801L1400 633L1215 846Z" fill="#dbdada" stroke="#dbdada"></path><path d="M1181 602L1026 426L1018 634Z" fill="#f6f6f6" stroke="#f6f6f6"></path><path d="M1186 444L1026 426L1181 602Z" fill="#d2d1d1" stroke="#d2d1d1"></path><path d="M579 369L760 620L866 425Z" fill="#dfdfdf" stroke="#dfdfdf"></path><path d="M579 369L427 605L560 633Z" fill="#ffffff" stroke="#ffffff"></path><path d="M220 576L159 441L0 638Z" fill="#f6f6f6" stroke="#f6f6f6"></path><path d="M587 237L579 369L849 230Z" fill="#fafafa" stroke="#fafafa"></path><path d="M380 2624L586 2443L434 2409Z" fill="#f6f6f6" stroke="#f6f6f6"></path><path d="M586 2443L806 2643L747 2347Z" fill="#f1f1f1" stroke="#f1f1f1"></path><path d="M1400 2646L1400 2430L1197 2406Z" fill="#dfdfdf" stroke="#dfdfdf"></path><path d="M649 2643L806 2643L586 2443Z" fill="#ededed" stroke="#ededed"></path><path d="M1400 633L1186 444L1181 602Z" fill="#dbdada" stroke="#dbdada"></path><path d="M849 230L579 369L866 425Z" fill="#e4e3e3" stroke="#e4e3e3"></path><path d="M191 2397L380 2624L434 2409Z" fill="#dfdfdf" stroke="#dfdfdf"></path><path d="M194 2645L380 2624L191 2397Z" fill="#d6d6d6" stroke="#d6d6d6"></path><path d="M1053 2645L1197 2406L995 2467Z" fill="#d6d6d6" stroke="#d6d6d6"></path><path d="M1197 2406L1400 2430L1400 2228Z" fill="#dfdfdf" stroke="#dfdfdf"></path><path d="M0 2177L0 2455L195 2249Z" fill="#ededed" stroke="#ededed"></path><path d="M200 178L159 441L394 405Z" fill="#dfdfdf" stroke="#dfdfdf"></path><path d="M394 405L159 441L220 576Z" fill="#fafafa" stroke="#fafafa"></path><path d="M1154 2663L1053 2645L1009 2776Z" fill="#e4e3e3" stroke="#e4e3e3"></path><path d="M806 2643L1053 2645L995 2467Z" fill="#ffffff" stroke="#ffffff"></path><path d="M456 2756L639 2768L649 2643Z" fill="#ededed" stroke="#ededed"></path><path d="M1009 2776L1053 2645L806 2643Z" fill="#fafafa" stroke="#fafafa"></path><path d="M0 2455L194 2645L191 2397Z" fill="#f6f6f6" stroke="#f6f6f6"></path><path d="M639 2768L806 2643L649 2643Z" fill="#d6d6d6" stroke="#d6d6d6"></path><path d="M1053 2645L1154 2663L1197 2406Z" fill="#d6d6d6" stroke="#d6d6d6"></path><path d="M849 230L866 425L937 196Z" fill="#e8e8e8" stroke="#e8e8e8"></path><path d="M579 369L428 211L394 405Z" fill="#d6d6d6" stroke="#d6d6d6"></path><path d="M456 2756L649 2643L380 2624Z" fill="#dfdfdf" stroke="#dfdfdf"></path><path d="M937 196L866 425L1026 426Z" fill="#e8e8e8" stroke="#e8e8e8"></path><path d="M263 2794L456 2756L380 2624Z" fill="#ededed" stroke="#ededed"></path><path d="M602 0L428 211L587 237Z" fill="#d6d6d6" stroke="#d6d6d6"></path><path d="M587 237L428 211L579 369Z" fill="#ffffff" stroke="#ffffff"></path><path d="M780 2849L1009 2776L806 2643Z" fill="#f1f1f1" stroke="#f1f1f1"></path><path d="M1228 179L937 196L1026 426Z" fill="#fafafa" stroke="#fafafa"></path><path d="M849 230L765 0L587 237Z" fill="#e4e3e3" stroke="#e4e3e3"></path><path d="M1228 179L1026 426L1186 444Z" fill="#e4e3e3" stroke="#e4e3e3"></path><path d="M200 178L0 361L159 441Z" fill="#dfdfdf" stroke="#dfdfdf"></path><path d="M159 441L0 361L0 638Z" fill="#dbdada" stroke="#dbdada"></path><path d="M0 2455L0 2635L194 2645Z" fill="#fafafa" stroke="#fafafa"></path><path d="M194 2645L263 2794L380 2624Z" fill="#ffffff" stroke="#ffffff"></path><path d="M1154 2663L1400 2646L1197 2406Z" fill="#dbdada" stroke="#dbdada"></path><path d="M1203 2823L1400 2646L1154 2663Z" fill="#f1f1f1" stroke="#f1f1f1"></path><path d="M639 2768L780 2849L806 2643Z" fill="#fafafa" stroke="#fafafa"></path><path d="M620 3000L780 2849L639 2768Z" fill="#f6f6f6" stroke="#f6f6f6"></path><path d="M620 3000L639 2768L456 2756Z" fill="#ededed" stroke="#ededed"></path><path d="M1400 633L1400 336L1186 444Z" fill="#f6f6f6" stroke="#f6f6f6"></path><path d="M0 2764L263 2794L194 2645Z" fill="#dbdada" stroke="#dbdada"></path><path d="M335 0L200 178L428 211Z" fill="#e8e8e8" stroke="#e8e8e8"></path><path d="M428 211L200 178L394 405Z" fill="#fafafa" stroke="#fafafa"></path><path d="M1029 3000L1203 2823L1009 2776Z" fill="#d6d6d6" stroke="#d6d6d6"></path><path d="M1009 2776L1203 2823L1154 2663Z" fill="#fafafa" stroke="#fafafa"></path><path d="M1400 336L1228 179L1186 444Z" fill="#fafafa" stroke="#fafafa"></path><path d="M937 196L765 0L849 230Z" fill="#e8e8e8" stroke="#e8e8e8"></path><path d="M1400 336L1400 259L1228 179Z" fill="#dfdfdf" stroke="#dfdfdf"></path><path d="M0 2635L0 2764L194 2645Z" fill="#e4e3e3" stroke="#e4e3e3"></path><path d="M200 178L0 177L0 361Z" fill="#e4e3e3" stroke="#e4e3e3"></path><path d="M197 0L0 177L200 178Z" fill="#f1f1f1" stroke="#f1f1f1"></path><path d="M1203 2823L1400 2805L1400 2646Z" fill="#ffffff" stroke="#ffffff"></path><path d="M1066 0L765 0L937 196Z" fill="#f6f6f6" stroke="#f6f6f6"></path><path d="M765 0L602 0L587 237Z" fill="#dbdada" stroke="#dbdada"></path><path d="M399 3000L456 2756L263 2794Z" fill="#dfdfdf" stroke="#dfdfdf"></path><path d="M399 3000L620 3000L456 2756Z" fill="#e4e3e3" stroke="#e4e3e3"></path><path d="M780 2849L839 3000L1009 2776Z" fill="#dbdada" stroke="#dbdada"></path><path d="M1203 2823L1240 3000L1400 2805Z" fill="#dfdfdf" stroke="#dfdfdf"></path><path d="M620 3000L839 3000L780 2849Z" fill="#fafafa" stroke="#fafafa"></path><path d="M168 3000L399 3000L263 2794Z" fill="#ffffff" stroke="#ffffff"></path><path d="M602 0L335 0L428 211Z" fill="#dfdfdf" stroke="#dfdfdf"></path><path d="M839 3000L1029 3000L1009 2776Z" fill="#d2d1d1" stroke="#d2d1d1"></path><path d="M1228 179L1066 0L937 196Z" fill="#d2d1d1" stroke="#d2d1d1"></path><path d="M1255 0L1066 0L1228 179Z" fill="#dbdada" stroke="#dbdada"></path><path d="M335 0L197 0L200 178Z" fill="#dfdfdf" stroke="#dfdfdf"></path><path d="M0 2764L168 3000L263 2794Z" fill="#d6d6d6" stroke="#d6d6d6"></path><path d="M1400 0L1255 0L1228 179Z" fill="#dfdfdf" stroke="#dfdfdf"></path><path d="M1029 3000L1240 3000L1203 2823Z" fill="#e4e3e3" stroke="#e4e3e3"></path><path d="M197 0L0 0L0 177Z" fill="#ffffff" stroke="#ffffff"></path><path d="M0 2764L0 3000L168 3000Z" fill="#fafafa" stroke="#fafafa"></path><path d="M1400 259L1400 0L1228 179Z" fill="#dfdfdf" stroke="#dfdfdf"></path><path d="M1240 3000L1400 3000L1400 2805Z" fill="#d2d1d1" stroke="#d2d1d1"></path></g></svg>