<svg id="visual" viewBox="0 0 1400 3000" width="1400" height="3000" xmlns="http://www.w3.org/2000/svg" xmlns:xlink="http://www.w3.org/1999/xlink" version="1.1"><g stroke-width="1" stroke-linejoin="bevel"><path d="M646 1456L560 1359.6L521 1477Z" fill="#0080e1" stroke="#0080e1"></path><path d="M646 1456L712 1345.6L560 1359.6Z" fill="#00a6f7" stroke="#00a6f7"></path><path d="M675 1197.3L530 1267.3L560 1359.6Z" fill="#0080e1" stroke="#0080e1"></path><path d="M364 1361.6L389 1512L521 1477Z" fill="#0064cc" stroke="#0064cc"></path><path d="M364 1361.6L521 1477L560 1359.6Z" fill="#008ae7" stroke="#008ae7"></path><path d="M752 1609.4L784 1527L646 1456Z" fill="#008ae7" stroke="#008ae7"></path><path d="M530 1267.3L364 1361.6L560 1359.6Z" fill="#00b9ff" stroke="#00b9ff"></path><path d="M467 1240.3L364 1361.6L530 1267.3Z" fill="#00a6f7" stroke="#00a6f7"></path><path d="M752 1609.4L646 1456L544 1684.4Z" fill="#009df2" stroke="#009df2"></path><path d="M646 1456L784 1527L712 1345.6Z" fill="#0080e1" stroke="#0080e1"></path><path d="M544 1684.4L646 1456L521 1477Z" fill="#00b9ff" stroke="#00b9ff"></path><path d="M868 1308.6L675 1197.3L712 1345.6Z" fill="#0080e1" stroke="#0080e1"></path><path d="M712 1345.6L675 1197.3L560 1359.6Z" fill="#0077da" stroke="#0077da"></path><path d="M530 1267.3L595 1042.9L467 1240.3Z" fill="#0080e1" stroke="#0080e1"></path><path d="M371 1630.4L544 1684.4L521 1477Z" fill="#006dd4" stroke="#006dd4"></path><path d="M364 1361.6L334 1527L389 1512Z" fill="#00a6f7" stroke="#00a6f7"></path><path d="M389 1512L371 1630.4L521 1477Z" fill="#005ac5" stroke="#005ac5"></path><path d="M334 1527L371 1630.4L389 1512Z" fill="#00b0fb" stroke="#00b0fb"></path><path d="M371 1630.4L532 1720.7L544 1684.4Z" fill="#006dd4" stroke="#006dd4"></path><path d="M544 1684.4L695 1743.7L752 1609.4Z" fill="#0077da" stroke="#0077da"></path><path d="M752 1609.4L807 1646.4L784 1527Z" fill="#00a6f7" stroke="#00a6f7"></path><path d="M695 1743.7L807 1646.4L752 1609.4Z" fill="#005ac5" stroke="#005ac5"></path><path d="M953 1456L868 1308.6L784 1527Z" fill="#0080e1" stroke="#0080e1"></path><path d="M784 1527L868 1308.6L712 1345.6Z" fill="#0080e1" stroke="#0080e1"></path><path d="M237 1209.3L262 1353.6L364 1361.6Z" fill="#0077da" stroke="#0077da"></path><path d="M364 1361.6L262 1353.6L334 1527Z" fill="#0077da" stroke="#0077da"></path><path d="M334 1527L247 1667.4L371 1630.4Z" fill="#00b0fb" stroke="#00b0fb"></path><path d="M876 1184.3L715 1128.9L675 1197.3Z" fill="#009df2" stroke="#009df2"></path><path d="M595 1042.9L386 1120.9L467 1240.3Z" fill="#0064cc" stroke="#0064cc"></path><path d="M532 1720.7L695 1743.7L544 1684.4Z" fill="#008ae7" stroke="#008ae7"></path><path d="M595 1042.9L530 1267.3L675 1197.3Z" fill="#005ac5" stroke="#005ac5"></path><path d="M467 1240.3L237 1209.3L364 1361.6Z" fill="#005ac5" stroke="#005ac5"></path><path d="M807 1646.4L953 1456L784 1527Z" fill="#00a6f7" stroke="#00a6f7"></path><path d="M954 1237.3L876 1184.3L868 1308.6Z" fill="#008ae7" stroke="#008ae7"></path><path d="M868 1308.6L876 1184.3L675 1197.3Z" fill="#0077da" stroke="#0077da"></path><path d="M566 965.5L595 1042.9L743 989.5Z" fill="#008ae7" stroke="#008ae7"></path><path d="M715 1128.9L595 1042.9L675 1197.3Z" fill="#00b0fb" stroke="#00b0fb"></path><path d="M306 1763.7L426 1806.7L371 1630.4Z" fill="#0064cc" stroke="#0064cc"></path><path d="M371 1630.4L426 1806.7L532 1720.7Z" fill="#005ac5" stroke="#005ac5"></path><path d="M532 1720.7L674 1888.1L695 1743.7Z" fill="#0080e1" stroke="#0080e1"></path><path d="M386 1120.9L237 1209.3L467 1240.3Z" fill="#009df2" stroke="#009df2"></path><path d="M114 1488L334 1527L262 1353.6Z" fill="#0077da" stroke="#0077da"></path><path d="M114 1488L247 1667.4L334 1527Z" fill="#009df2" stroke="#009df2"></path><path d="M994 1347.6L954 1237.3L868 1308.6Z" fill="#008ae7" stroke="#008ae7"></path><path d="M953 1456L994 1347.6L868 1308.6Z" fill="#008ae7" stroke="#008ae7"></path><path d="M974 1139.9L875 1124.9L876 1184.3Z" fill="#00a6f7" stroke="#00a6f7"></path><path d="M876 1184.3L875 1124.9L715 1128.9Z" fill="#0080e1" stroke="#0080e1"></path><path d="M247 1667.4L306 1763.7L371 1630.4Z" fill="#00a6f7" stroke="#00a6f7"></path><path d="M833 1908.1L892 1746.7L695 1743.7Z" fill="#005ac5" stroke="#005ac5"></path><path d="M695 1743.7L892 1746.7L807 1646.4Z" fill="#00b0fb" stroke="#00b0fb"></path><path d="M807 1646.4L1017 1667.4L953 1456Z" fill="#005ac5" stroke="#005ac5"></path><path d="M1138 1492L1120 1343.6L994 1347.6Z" fill="#00b9ff" stroke="#00b9ff"></path><path d="M237 1209.3L120 1389.6L262 1353.6Z" fill="#00b9ff" stroke="#00b9ff"></path><path d="M743 989.5L595 1042.9L715 1128.9Z" fill="#0064cc" stroke="#0064cc"></path><path d="M595 1042.9L433 987.5L386 1120.9Z" fill="#00b0fb" stroke="#00b0fb"></path><path d="M386 1120.9L294 1043.9L237 1209.3Z" fill="#00a6f7" stroke="#00a6f7"></path><path d="M454 1919.1L533 1894.1L426 1806.7Z" fill="#005ac5" stroke="#005ac5"></path><path d="M426 1806.7L533 1894.1L532 1720.7Z" fill="#0077da" stroke="#0077da"></path><path d="M987 1865.1L926 1739.7L892 1746.7Z" fill="#009df2" stroke="#009df2"></path><path d="M892 1746.7L926 1739.7L807 1646.4Z" fill="#005ac5" stroke="#005ac5"></path><path d="M566 965.5L433 987.5L595 1042.9Z" fill="#00a6f7" stroke="#00a6f7"></path><path d="M120 1389.6L114 1488L262 1353.6Z" fill="#0064cc" stroke="#0064cc"></path><path d="M247 1667.4L118 1754.7L306 1763.7Z" fill="#005ac5" stroke="#005ac5"></path><path d="M533 1894.1L674 1888.1L532 1720.7Z" fill="#00b9ff" stroke="#00b9ff"></path><path d="M875 1124.9L743 989.5L715 1128.9Z" fill="#0080e1" stroke="#0080e1"></path><path d="M114 1488L161 1663.4L247 1667.4Z" fill="#0094ed" stroke="#0094ed"></path><path d="M433 987.5L294 1043.9L386 1120.9Z" fill="#008ae7" stroke="#008ae7"></path><path d="M237 1209.3L109 1178.3L120 1389.6Z" fill="#0080e1" stroke="#0080e1"></path><path d="M1087 1246.3L974 1139.9L954 1237.3Z" fill="#00b9ff" stroke="#00b9ff"></path><path d="M954 1237.3L974 1139.9L876 1184.3Z" fill="#00b9ff" stroke="#00b9ff"></path><path d="M875 1124.9L819 971.5L743 989.5Z" fill="#0064cc" stroke="#0064cc"></path><path d="M926 1739.7L1017 1667.4L807 1646.4Z" fill="#00a6f7" stroke="#00a6f7"></path><path d="M305 1918.1L454 1919.1L426 1806.7Z" fill="#009df2" stroke="#009df2"></path><path d="M533 1894.1L600 2030.5L674 1888.1Z" fill="#009df2" stroke="#009df2"></path><path d="M305 1918.1L426 1806.7L306 1763.7Z" fill="#00b0fb" stroke="#00b0fb"></path><path d="M951 993.5L819 971.5L875 1124.9Z" fill="#0080e1" stroke="#0080e1"></path><path d="M664 821.2L611 832.2L566 965.5Z" fill="#006dd4" stroke="#006dd4"></path><path d="M294 1043.9L176 1101.9L237 1209.3Z" fill="#0064cc" stroke="#0064cc"></path><path d="M1017 1667.4L1076 1615.4L953 1456Z" fill="#005ac5" stroke="#005ac5"></path><path d="M994 1347.6L1087 1246.3L954 1237.3Z" fill="#0064cc" stroke="#0064cc"></path><path d="M176 1101.9L109 1178.3L237 1209.3Z" fill="#008ae7" stroke="#008ae7"></path><path d="M120 1389.6L0 1495L114 1488Z" fill="#00a6f7" stroke="#00a6f7"></path><path d="M843 2005.5L833 1908.1L751 2070.5Z" fill="#005ac5" stroke="#005ac5"></path><path d="M674 1888.1L833 1908.1L695 1743.7Z" fill="#0064cc" stroke="#0064cc"></path><path d="M926 1739.7L1111 1759.7L1017 1667.4Z" fill="#0080e1" stroke="#0080e1"></path><path d="M1017 1667.4L1111 1759.7L1076 1615.4Z" fill="#008ae7" stroke="#008ae7"></path><path d="M1120 1343.6L1087 1246.3L994 1347.6Z" fill="#009df2" stroke="#009df2"></path><path d="M974 1139.9L951 993.5L875 1124.9Z" fill="#0094ed" stroke="#0094ed"></path><path d="M1138 1492L994 1347.6L953 1456Z" fill="#00b0fb" stroke="#00b0fb"></path><path d="M118 1754.7L305 1918.1L306 1763.7Z" fill="#00a6f7" stroke="#00a6f7"></path><path d="M0 1619.4L118 1754.7L161 1663.4Z" fill="#0080e1" stroke="#0080e1"></path><path d="M161 1663.4L118 1754.7L247 1667.4Z" fill="#0094ed" stroke="#0094ed"></path><path d="M0 1619.4L161 1663.4L114 1488Z" fill="#0080e1" stroke="#0080e1"></path><path d="M1076 1615.4L1138 1492L953 1456Z" fill="#009df2" stroke="#009df2"></path><path d="M1142 1040.9L951 993.5L974 1139.9Z" fill="#008ae7" stroke="#008ae7"></path><path d="M433 987.5L287 930.5L294 1043.9Z" fill="#00a6f7" stroke="#00a6f7"></path><path d="M294 1043.9L123 934.5L176 1101.9Z" fill="#008ae7" stroke="#008ae7"></path><path d="M0 1066.9L0 1230.3L109 1178.3Z" fill="#006dd4" stroke="#006dd4"></path><path d="M394 858.2L287 930.5L433 987.5Z" fill="#00b9ff" stroke="#00b9ff"></path><path d="M394 858.2L433 987.5L566 965.5Z" fill="#00b9ff" stroke="#00b9ff"></path><path d="M0 1230.3L0 1373.6L120 1389.6Z" fill="#0064cc" stroke="#0064cc"></path><path d="M0 1373.6L0 1495L120 1389.6Z" fill="#005ac5" stroke="#005ac5"></path><path d="M833 1908.1L987 1865.1L892 1746.7Z" fill="#0064cc" stroke="#0064cc"></path><path d="M1216 1599.4L1212 1533L1138 1492Z" fill="#00a6f7" stroke="#00a6f7"></path><path d="M664 821.2L743 989.5L819 971.5Z" fill="#00a6f7" stroke="#00a6f7"></path><path d="M664 821.2L566 965.5L743 989.5Z" fill="#00b0fb" stroke="#00b0fb"></path><path d="M410 2047.5L600 2030.5L454 1919.1Z" fill="#009df2" stroke="#009df2"></path><path d="M454 1919.1L600 2030.5L533 1894.1Z" fill="#00b9ff" stroke="#00b9ff"></path><path d="M833 1908.1L993 2014.5L987 1865.1Z" fill="#0094ed" stroke="#0094ed"></path><path d="M611 832.2L394 858.2L566 965.5Z" fill="#0064cc" stroke="#0064cc"></path><path d="M0 1495L0 1619.4L114 1488Z" fill="#009df2" stroke="#009df2"></path><path d="M0 1066.9L109 1178.3L176 1101.9Z" fill="#0077da" stroke="#0077da"></path><path d="M109 1178.3L0 1230.3L120 1389.6Z" fill="#0064cc" stroke="#0064cc"></path><path d="M879 810.2L664 821.2L819 971.5Z" fill="#009df2" stroke="#009df2"></path><path d="M166 824.2L263 847.2L276 732.8Z" fill="#0077da" stroke="#0077da"></path><path d="M987 1865.1L1111 1759.7L926 1739.7Z" fill="#0080e1" stroke="#0080e1"></path><path d="M751 2070.5L833 1908.1L674 1888.1Z" fill="#009df2" stroke="#009df2"></path><path d="M987 1865.1L1086 1923.1L1111 1759.7Z" fill="#00a6f7" stroke="#00a6f7"></path><path d="M252 2053.5L410 2047.5L305 1918.1Z" fill="#0077da" stroke="#0077da"></path><path d="M305 1918.1L410 2047.5L454 1919.1Z" fill="#0080e1" stroke="#0080e1"></path><path d="M1216 1599.4L1138 1492L1076 1615.4Z" fill="#00b9ff" stroke="#00b9ff"></path><path d="M1138 1492L1258 1309.6L1120 1343.6Z" fill="#00b0fb" stroke="#00b0fb"></path><path d="M1259 1114.9L1142 1040.9L1087 1246.3Z" fill="#00b0fb" stroke="#00b0fb"></path><path d="M1111 1759.7L1216 1599.4L1076 1615.4Z" fill="#0064cc" stroke="#0064cc"></path><path d="M0 1619.4L0 1754.7L118 1754.7Z" fill="#00b0fb" stroke="#00b0fb"></path><path d="M118 1754.7L133 1960.1L305 1918.1Z" fill="#009df2" stroke="#009df2"></path><path d="M394 858.2L263 847.2L287 930.5Z" fill="#00b9ff" stroke="#00b9ff"></path><path d="M287 930.5L123 934.5L294 1043.9Z" fill="#00b9ff" stroke="#00b9ff"></path><path d="M263 847.2L394 858.2L276 732.8Z" fill="#0080e1" stroke="#0080e1"></path><path d="M794 2183.8L751 2070.5L733 2233.8Z" fill="#005ac5" stroke="#005ac5"></path><path d="M600 2030.5L751 2070.5L674 1888.1Z" fill="#00b9ff" stroke="#00b9ff"></path><path d="M263 847.2L123 934.5L287 930.5Z" fill="#00a6f7" stroke="#00a6f7"></path><path d="M123 934.5L0 1066.9L176 1101.9Z" fill="#0094ed" stroke="#0094ed"></path><path d="M1257 1266.3L1087 1246.3L1120 1343.6Z" fill="#00b0fb" stroke="#00b0fb"></path><path d="M1087 1246.3L1142 1040.9L974 1139.9Z" fill="#0077da" stroke="#0077da"></path><path d="M951 993.5L879 810.2L819 971.5Z" fill="#0077da" stroke="#0077da"></path><path d="M1022 781.2L879 810.2L951 993.5Z" fill="#0094ed" stroke="#0094ed"></path><path d="M1400 1406.6L1258 1309.6L1212 1533Z" fill="#00b0fb" stroke="#00b0fb"></path><path d="M1212 1533L1258 1309.6L1138 1492Z" fill="#00a6f7" stroke="#00a6f7"></path><path d="M0 1942.1L133 1960.1L118 1754.7Z" fill="#0077da" stroke="#0077da"></path><path d="M1258 1309.6L1257 1266.3L1120 1343.6Z" fill="#005ac5" stroke="#005ac5"></path><path d="M133 1960.1L252 2053.5L305 1918.1Z" fill="#0080e1" stroke="#0080e1"></path><path d="M410 2047.5L454 2138.8L600 2030.5Z" fill="#009df2" stroke="#009df2"></path><path d="M993 2014.5L1086 1923.1L987 1865.1Z" fill="#009df2" stroke="#009df2"></path><path d="M1111 1759.7L1213 1788.7L1216 1599.4Z" fill="#00b0fb" stroke="#00b0fb"></path><path d="M993 2014.5L833 1908.1L843 2005.5Z" fill="#006dd4" stroke="#006dd4"></path><path d="M940 2179.8L993 2014.5L843 2005.5Z" fill="#0064cc" stroke="#0064cc"></path><path d="M252 2053.5L454 2138.8L410 2047.5Z" fill="#0064cc" stroke="#0064cc"></path><path d="M1086 1923.1L1213 1788.7L1111 1759.7Z" fill="#008ae7" stroke="#008ae7"></path><path d="M1400 1468L1400 1406.6L1212 1533Z" fill="#009df2" stroke="#009df2"></path><path d="M263 847.2L166 824.2L123 934.5Z" fill="#009df2" stroke="#009df2"></path><path d="M123 934.5L0 900.5L0 1066.9Z" fill="#005ac5" stroke="#005ac5"></path><path d="M473 684.8L394 858.2L611 832.2Z" fill="#00b9ff" stroke="#00b9ff"></path><path d="M473 684.8L611 832.2L586 659.8Z" fill="#00a6f7" stroke="#00a6f7"></path><path d="M1259 1114.9L1156 974.5L1142 1040.9Z" fill="#0077da" stroke="#0077da"></path><path d="M1142 1040.9L1156 974.5L951 993.5Z" fill="#00b9ff" stroke="#00b9ff"></path><path d="M1257 1266.3L1259 1114.9L1087 1246.3Z" fill="#009df2" stroke="#009df2"></path><path d="M1400 1260.3L1259 1114.9L1257 1266.3Z" fill="#0077da" stroke="#0077da"></path><path d="M586 659.8L611 832.2L664 821.2Z" fill="#0080e1" stroke="#0080e1"></path><path d="M473 684.8L276 732.8L394 858.2Z" fill="#008ae7" stroke="#008ae7"></path><path d="M133 1960.1L144 2056.5L252 2053.5Z" fill="#0080e1" stroke="#0080e1"></path><path d="M227 2210.8L454 2267.2L454 2138.8Z" fill="#00b0fb" stroke="#00b0fb"></path><path d="M0 2018.5L144 2056.5L133 1960.1Z" fill="#0080e1" stroke="#0080e1"></path><path d="M694 630.8L586 659.8L664 821.2Z" fill="#009df2" stroke="#009df2"></path><path d="M0 1754.7L0 1942.1L118 1754.7Z" fill="#0077da" stroke="#0077da"></path><path d="M733 2233.8L751 2070.5L600 2030.5Z" fill="#005ac5" stroke="#005ac5"></path><path d="M751 2070.5L794 2183.8L843 2005.5Z" fill="#0077da" stroke="#0077da"></path><path d="M0 859.2L0 900.5L123 934.5Z" fill="#00b0fb" stroke="#00b0fb"></path><path d="M0 859.2L123 934.5L166 824.2Z" fill="#006dd4" stroke="#006dd4"></path><path d="M1156 974.5L1022 781.2L951 993.5Z" fill="#00b0fb" stroke="#00b0fb"></path><path d="M809 647.8L694 630.8L664 821.2Z" fill="#0080e1" stroke="#0080e1"></path><path d="M973 701.8L1022 781.2L1103 704.8Z" fill="#0077da" stroke="#0077da"></path><path d="M1159 2185.8L1122 2011.5L993 2014.5Z" fill="#006dd4" stroke="#006dd4"></path><path d="M993 2014.5L1122 2011.5L1086 1923.1Z" fill="#009df2" stroke="#009df2"></path><path d="M1086 1923.1L1271 1916.1L1213 1788.7Z" fill="#005ac5" stroke="#005ac5"></path><path d="M454 2267.2L546 2236.8L454 2138.8Z" fill="#005ac5" stroke="#005ac5"></path><path d="M454 2138.8L546 2236.8L600 2030.5Z" fill="#006dd4" stroke="#006dd4"></path><path d="M809 647.8L664 821.2L879 810.2Z" fill="#009df2" stroke="#009df2"></path><path d="M586 659.8L511 594.5L473 684.8Z" fill="#00b9ff" stroke="#00b9ff"></path><path d="M473 684.8L379 561.5L276 732.8Z" fill="#005ac5" stroke="#005ac5"></path><path d="M0 703.8L0 859.2L166 824.2Z" fill="#00b0fb" stroke="#00b0fb"></path><path d="M973 701.8L809 647.8L879 810.2Z" fill="#0094ed" stroke="#0094ed"></path><path d="M546 2236.8L733 2233.8L600 2030.5Z" fill="#00b0fb" stroke="#00b0fb"></path><path d="M794 2183.8L940 2179.8L843 2005.5Z" fill="#009df2" stroke="#009df2"></path><path d="M1400 1468L1212 1533L1400 1591.4Z" fill="#0080e1" stroke="#0080e1"></path><path d="M1258 1309.6L1400 1260.3L1257 1266.3Z" fill="#00b0fb" stroke="#00b0fb"></path><path d="M1212 1533L1216 1599.4L1400 1591.4Z" fill="#009df2" stroke="#009df2"></path><path d="M1400 1591.4L1216 1599.4L1400 1758.7Z" fill="#0080e1" stroke="#0080e1"></path><path d="M0 1942.1L0 2018.5L133 1960.1Z" fill="#0080e1" stroke="#0080e1"></path><path d="M144 2056.5L156 2144.8L252 2053.5Z" fill="#00b9ff" stroke="#00b9ff"></path><path d="M1161 841.2L1022 781.2L1156 974.5Z" fill="#009df2" stroke="#009df2"></path><path d="M1022 781.2L973 701.8L879 810.2Z" fill="#0080e1" stroke="#0080e1"></path><path d="M0 2018.5L156 2144.8L144 2056.5Z" fill="#009df2" stroke="#009df2"></path><path d="M1246 828.2L1161 841.2L1156 974.5Z" fill="#0064cc" stroke="#0064cc"></path><path d="M1305 907.5L1156 974.5L1259 1114.9Z" fill="#009df2" stroke="#009df2"></path><path d="M801 2308.2L940 2179.8L794 2183.8Z" fill="#00b0fb" stroke="#00b0fb"></path><path d="M1400 1758.7L1216 1599.4L1213 1788.7Z" fill="#0080e1" stroke="#0080e1"></path><path d="M532 457.1L511 594.5L694 630.8Z" fill="#006dd4" stroke="#006dd4"></path><path d="M694 630.8L511 594.5L586 659.8Z" fill="#0077da" stroke="#0077da"></path><path d="M276 732.8L119 636.8L166 824.2Z" fill="#0077da" stroke="#0077da"></path><path d="M1400 1406.6L1400 1260.3L1258 1309.6Z" fill="#00a6f7" stroke="#00a6f7"></path><path d="M227 2210.8L454 2138.8L252 2053.5Z" fill="#00b0fb" stroke="#00b0fb"></path><path d="M546 2236.8L607 2305.2L733 2233.8Z" fill="#00a6f7" stroke="#00a6f7"></path><path d="M1305 1994.5L1271 1916.1L1122 2011.5Z" fill="#00b9ff" stroke="#00b9ff"></path><path d="M1122 2011.5L1271 1916.1L1086 1923.1Z" fill="#0077da" stroke="#0077da"></path><path d="M300 2329.2L227 2210.8L167 2351.2Z" fill="#0077da" stroke="#0077da"></path><path d="M156 2144.8L227 2210.8L252 2053.5Z" fill="#0080e1" stroke="#0080e1"></path><path d="M454 2267.2L607 2305.2L546 2236.8Z" fill="#0080e1" stroke="#0080e1"></path><path d="M733 2233.8L801 2308.2L794 2183.8Z" fill="#008ae7" stroke="#008ae7"></path><path d="M672 2335.2L607 2305.2L606 2444.5Z" fill="#0080e1" stroke="#0080e1"></path><path d="M845 581.5L749 569.5L809 647.8Z" fill="#00b9ff" stroke="#00b9ff"></path><path d="M809 647.8L749 569.5L694 630.8Z" fill="#00a6f7" stroke="#00a6f7"></path><path d="M1400 1260.3L1400 1110.9L1259 1114.9Z" fill="#008ae7" stroke="#008ae7"></path><path d="M1271 1916.1L1400 1758.7L1213 1788.7Z" fill="#009df2" stroke="#009df2"></path><path d="M973 701.8L845 581.5L809 647.8Z" fill="#0077da" stroke="#0077da"></path><path d="M956 544.5L845 581.5L973 701.8Z" fill="#00b9ff" stroke="#00b9ff"></path><path d="M532 457.1L379 561.5L511 594.5Z" fill="#0080e1" stroke="#0080e1"></path><path d="M511 594.5L379 561.5L473 684.8Z" fill="#008ae7" stroke="#008ae7"></path><path d="M1400 1110.9L1305 907.5L1259 1114.9Z" fill="#005ac5" stroke="#005ac5"></path><path d="M1161 841.2L1103 704.8L1022 781.2Z" fill="#005ac5" stroke="#005ac5"></path><path d="M1246 828.2L1103 704.8L1161 841.2Z" fill="#0077da" stroke="#0077da"></path><path d="M1305 907.5L1246 828.2L1156 974.5Z" fill="#005ac5" stroke="#005ac5"></path><path d="M672 2335.2L801 2308.2L733 2233.8Z" fill="#0077da" stroke="#0077da"></path><path d="M1159 2185.8L1305 1994.5L1122 2011.5Z" fill="#0080e1" stroke="#0080e1"></path><path d="M606 2444.5L607 2305.2L454 2267.2Z" fill="#0080e1" stroke="#0080e1"></path><path d="M607 2305.2L672 2335.2L733 2233.8Z" fill="#0094ed" stroke="#0094ed"></path><path d="M146 573.5L119 636.8L276 732.8Z" fill="#0094ed" stroke="#0094ed"></path><path d="M1159 2185.8L993 2014.5L940 2179.8Z" fill="#0094ed" stroke="#0094ed"></path><path d="M1271 1916.1L1400 1903.1L1400 1758.7Z" fill="#008ae7" stroke="#008ae7"></path><path d="M119 636.8L0 703.8L166 824.2Z" fill="#00b0fb" stroke="#00b0fb"></path><path d="M167 2351.2L227 2210.8L156 2144.8Z" fill="#0080e1" stroke="#0080e1"></path><path d="M227 2210.8L300 2329.2L454 2267.2Z" fill="#009df2" stroke="#009df2"></path><path d="M1305 1994.5L1400 1903.1L1271 1916.1Z" fill="#005ac5" stroke="#005ac5"></path><path d="M1112 2275.2L1159 2185.8L940 2179.8Z" fill="#00b9ff" stroke="#00b9ff"></path><path d="M1305 1994.5L1400 1991.5L1400 1903.1Z" fill="#00a6f7" stroke="#00a6f7"></path><path d="M234 529.5L146 573.5L276 732.8Z" fill="#0077da" stroke="#0077da"></path><path d="M119 636.8L0 568.5L0 703.8Z" fill="#0094ed" stroke="#0094ed"></path><path d="M1092 519.5L973 701.8L1103 704.8Z" fill="#008ae7" stroke="#008ae7"></path><path d="M1092 519.5L956 544.5L973 701.8Z" fill="#00b9ff" stroke="#00b9ff"></path><path d="M845 581.5L787 411.1L749 569.5Z" fill="#0094ed" stroke="#0094ed"></path><path d="M328 368.1L234 529.5L379 561.5Z" fill="#00b9ff" stroke="#00b9ff"></path><path d="M379 561.5L234 529.5L276 732.8Z" fill="#0077da" stroke="#0077da"></path><path d="M532 457.1L694 630.8L749 569.5Z" fill="#0080e1" stroke="#0080e1"></path><path d="M1305 907.5L1400 810.2L1246 828.2Z" fill="#00a6f7" stroke="#00a6f7"></path><path d="M1246 828.2L1281 690.8L1103 704.8Z" fill="#00a6f7" stroke="#00a6f7"></path><path d="M1400 1110.9L1400 911.5L1305 907.5Z" fill="#006dd4" stroke="#006dd4"></path><path d="M687 363.1L532 457.1L749 569.5Z" fill="#00b0fb" stroke="#00b0fb"></path><path d="M0 2018.5L0 2216.8L156 2144.8Z" fill="#00b0fb" stroke="#00b0fb"></path><path d="M1313 2166.8L1400 1991.5L1305 1994.5Z" fill="#0094ed" stroke="#0094ed"></path><path d="M1027 2335.2L1112 2275.2L940 2179.8Z" fill="#00b0fb" stroke="#00b0fb"></path><path d="M1159 2185.8L1313 2166.8L1305 1994.5Z" fill="#0094ed" stroke="#0094ed"></path><path d="M1027 2335.2L940 2179.8L801 2308.2Z" fill="#0080e1" stroke="#0080e1"></path><path d="M0 2280.2L167 2351.2L156 2144.8Z" fill="#009df2" stroke="#009df2"></path><path d="M397 2444.5L606 2444.5L454 2267.2Z" fill="#0080e1" stroke="#0080e1"></path><path d="M964 2403.5L1027 2335.2L801 2308.2Z" fill="#00a6f7" stroke="#00a6f7"></path><path d="M738 2437.5L801 2308.2L672 2335.2Z" fill="#008ae7" stroke="#008ae7"></path><path d="M397 2444.5L454 2267.2L300 2329.2Z" fill="#00b0fb" stroke="#00b0fb"></path><path d="M606 2444.5L738 2437.5L672 2335.2Z" fill="#005ac5" stroke="#005ac5"></path><path d="M1400 810.2L1281 690.8L1246 828.2Z" fill="#0094ed" stroke="#0094ed"></path><path d="M0 2216.8L0 2280.2L156 2144.8Z" fill="#009df2" stroke="#009df2"></path><path d="M318 2498.5L397 2444.5L300 2329.2Z" fill="#0064cc" stroke="#0064cc"></path><path d="M1400 911.5L1400 810.2L1305 907.5Z" fill="#0064cc" stroke="#0064cc"></path><path d="M153 422.1L146 573.5L234 529.5Z" fill="#009df2" stroke="#009df2"></path><path d="M0 426.1L0 568.5L146 573.5Z" fill="#0094ed" stroke="#0094ed"></path><path d="M146 573.5L0 568.5L119 636.8Z" fill="#00b9ff" stroke="#00b9ff"></path><path d="M1250 2335.2L1159 2185.8L1112 2275.2Z" fill="#0094ed" stroke="#0094ed"></path><path d="M1250 2335.2L1313 2166.8L1159 2185.8Z" fill="#00b9ff" stroke="#00b9ff"></path><path d="M988 370.1L787 411.1L956 544.5Z" fill="#009df2" stroke="#009df2"></path><path d="M956 544.5L787 411.1L845 581.5Z" fill="#005ac5" stroke="#005ac5"></path><path d="M738 2437.5L892 2423.5L801 2308.2Z" fill="#0094ed" stroke="#0094ed"></path><path d="M1092 2455.5L1250 2335.2L1112 2275.2Z" fill="#006dd4" stroke="#006dd4"></path><path d="M1237 575.5L1092 519.5L1103 704.8Z" fill="#00b0fb" stroke="#00b0fb"></path><path d="M892 2423.5L964 2403.5L801 2308.2Z" fill="#0077da" stroke="#0077da"></path><path d="M658 313.7L687 363.1L822 298.7Z" fill="#0080e1" stroke="#0080e1"></path><path d="M787 411.1L687 363.1L749 569.5Z" fill="#0064cc" stroke="#0064cc"></path><path d="M532 457.1L469 362.1L379 561.5Z" fill="#006dd4" stroke="#006dd4"></path><path d="M551 300.7L469 362.1L532 457.1Z" fill="#00b0fb" stroke="#00b0fb"></path><path d="M1281 690.8L1237 575.5L1103 704.8Z" fill="#00b0fb" stroke="#00b0fb"></path><path d="M1400 544.5L1237 575.5L1281 690.8Z" fill="#008ae7" stroke="#008ae7"></path><path d="M1400 810.2L1400 714.8L1281 690.8Z" fill="#00b0fb" stroke="#00b0fb"></path><path d="M469 362.1L328 368.1L379 561.5Z" fill="#0077da" stroke="#0077da"></path><path d="M328 368.1L153 422.1L234 529.5Z" fill="#005ac5" stroke="#005ac5"></path><path d="M167 2351.2L318 2498.5L300 2329.2Z" fill="#008ae7" stroke="#008ae7"></path><path d="M397 2444.5L560 2534.9L606 2444.5Z" fill="#0077da" stroke="#0077da"></path><path d="M606 2444.5L654 2636.9L738 2437.5Z" fill="#005ac5" stroke="#005ac5"></path><path d="M830 2597.9L965 2536.9L892 2423.5Z" fill="#00b0fb" stroke="#00b0fb"></path><path d="M139 2490.5L318 2498.5L167 2351.2Z" fill="#009df2" stroke="#009df2"></path><path d="M378 2545.9L560 2534.9L397 2444.5Z" fill="#008ae7" stroke="#008ae7"></path><path d="M965 2536.9L1092 2455.5L964 2403.5Z" fill="#00a6f7" stroke="#00a6f7"></path><path d="M822 298.7L687 363.1L787 411.1Z" fill="#008ae7" stroke="#008ae7"></path><path d="M687 363.1L551 300.7L532 457.1Z" fill="#006dd4" stroke="#006dd4"></path><path d="M469 362.1L462 298.7L328 368.1Z" fill="#0064cc" stroke="#0064cc"></path><path d="M988 370.1L956 544.5L1092 519.5Z" fill="#008ae7" stroke="#008ae7"></path><path d="M1092 2455.5L1027 2335.2L964 2403.5Z" fill="#0080e1" stroke="#0080e1"></path><path d="M1092 2455.5L1112 2275.2L1027 2335.2Z" fill="#00b0fb" stroke="#00b0fb"></path><path d="M1313 2166.8L1400 2219.8L1400 1991.5Z" fill="#006dd4" stroke="#006dd4"></path><path d="M658 313.7L551 300.7L687 363.1Z" fill="#006dd4" stroke="#006dd4"></path><path d="M318 2498.5L378 2545.9L397 2444.5Z" fill="#0064cc" stroke="#0064cc"></path><path d="M318 2599.9L378 2545.9L318 2498.5Z" fill="#00a6f7" stroke="#00a6f7"></path><path d="M1148 442.1L988 370.1L1092 519.5Z" fill="#008ae7" stroke="#008ae7"></path><path d="M551 300.7L462 298.7L469 362.1Z" fill="#00a6f7" stroke="#00a6f7"></path><path d="M92 284.7L0 426.1L153 422.1Z" fill="#008ae7" stroke="#008ae7"></path><path d="M1250 2335.2L1400 2219.8L1313 2166.8Z" fill="#009df2" stroke="#009df2"></path><path d="M1228 383.1L1148 442.1L1237 575.5Z" fill="#005ac5" stroke="#005ac5"></path><path d="M1237 575.5L1148 442.1L1092 519.5Z" fill="#0080e1" stroke="#0080e1"></path><path d="M965 2536.9L964 2403.5L892 2423.5Z" fill="#006dd4" stroke="#006dd4"></path><path d="M0 2447.5L139 2490.5L167 2351.2Z" fill="#008ae7" stroke="#008ae7"></path><path d="M949 324.7L822 298.7L787 411.1Z" fill="#005ac5" stroke="#005ac5"></path><path d="M658 313.7L712 182.4L551 300.7Z" fill="#0080e1" stroke="#0080e1"></path><path d="M416 113.4L254 267.7L462 298.7Z" fill="#00b9ff" stroke="#00b9ff"></path><path d="M254 267.7L153 422.1L328 368.1Z" fill="#00b0fb" stroke="#00b0fb"></path><path d="M153 422.1L0 426.1L146 573.5Z" fill="#008ae7" stroke="#008ae7"></path><path d="M1146 245.7L949 324.7L988 370.1Z" fill="#0080e1" stroke="#0080e1"></path><path d="M988 370.1L949 324.7L787 411.1Z" fill="#00b0fb" stroke="#00b0fb"></path><path d="M0 2280.2L0 2447.5L167 2351.2Z" fill="#00b0fb" stroke="#00b0fb"></path><path d="M830 2597.9L892 2423.5L738 2437.5Z" fill="#00b0fb" stroke="#00b0fb"></path><path d="M830 2597.9L738 2437.5L654 2636.9Z" fill="#00b9ff" stroke="#00b9ff"></path><path d="M654 2636.9L606 2444.5L560 2534.9Z" fill="#0077da" stroke="#0077da"></path><path d="M158 2609.9L318 2599.9L318 2498.5Z" fill="#00b9ff" stroke="#00b9ff"></path><path d="M553 2685.3L654 2636.9L560 2534.9Z" fill="#005ac5" stroke="#005ac5"></path><path d="M158 2609.9L318 2498.5L139 2490.5Z" fill="#009df2" stroke="#009df2"></path><path d="M512 134.4L462 298.7L551 300.7Z" fill="#00b0fb" stroke="#00b0fb"></path><path d="M462 298.7L254 267.7L328 368.1Z" fill="#0064cc" stroke="#0064cc"></path><path d="M553 2685.3L560 2534.9L378 2545.9Z" fill="#0080e1" stroke="#0080e1"></path><path d="M1400 714.8L1400 544.5L1281 690.8Z" fill="#008ae7" stroke="#008ae7"></path><path d="M1148 442.1L1146 245.7L988 370.1Z" fill="#00b0fb" stroke="#00b0fb"></path><path d="M1296 2467.5L1250 2335.2L1092 2455.5Z" fill="#00b0fb" stroke="#00b0fb"></path><path d="M1296 2467.5L1400 2334.2L1250 2335.2Z" fill="#0064cc" stroke="#0064cc"></path><path d="M1250 2335.2L1400 2334.2L1400 2219.8Z" fill="#0094ed" stroke="#0094ed"></path><path d="M1400 544.5L1228 383.1L1237 575.5Z" fill="#0094ed" stroke="#0094ed"></path><path d="M254 267.7L92 284.7L153 422.1Z" fill="#008ae7" stroke="#008ae7"></path><path d="M0 2642.9L158 2609.9L139 2490.5Z" fill="#0094ed" stroke="#0094ed"></path><path d="M431 2751.3L553 2685.3L378 2545.9Z" fill="#009df2" stroke="#009df2"></path><path d="M431 2751.3L378 2545.9L318 2599.9Z" fill="#0080e1" stroke="#0080e1"></path><path d="M654 2636.9L655 2690.3L830 2597.9Z" fill="#009df2" stroke="#009df2"></path><path d="M830 105.4L712 182.4L822 298.7Z" fill="#0064cc" stroke="#0064cc"></path><path d="M822 298.7L712 182.4L658 313.7Z" fill="#00a6f7" stroke="#00a6f7"></path><path d="M143 161.4L0 254.7L92 284.7Z" fill="#009df2" stroke="#009df2"></path><path d="M830 105.4L822 298.7L949 324.7Z" fill="#006dd4" stroke="#006dd4"></path><path d="M1087 2686.3L1125 2561.9L965 2536.9Z" fill="#005ac5" stroke="#005ac5"></path><path d="M965 2536.9L1125 2561.9L1092 2455.5Z" fill="#0077da" stroke="#0077da"></path><path d="M928 2740.3L965 2536.9L830 2597.9Z" fill="#008ae7" stroke="#008ae7"></path><path d="M1259 2547.9L1296 2467.5L1092 2455.5Z" fill="#00b0fb" stroke="#00b0fb"></path><path d="M553 2685.3L655 2690.3L654 2636.9Z" fill="#00a6f7" stroke="#00a6f7"></path><path d="M712 182.4L512 134.4L551 300.7Z" fill="#005ac5" stroke="#005ac5"></path><path d="M1204 2729.3L1259 2547.9L1125 2561.9Z" fill="#00b9ff" stroke="#00b9ff"></path><path d="M1125 2561.9L1259 2547.9L1092 2455.5Z" fill="#00a6f7" stroke="#00a6f7"></path><path d="M1296 2467.5L1400 2484.5L1400 2334.2Z" fill="#0094ed" stroke="#0094ed"></path><path d="M1400 250.7L1206 281.7L1228 383.1Z" fill="#00b0fb" stroke="#00b0fb"></path><path d="M1228 383.1L1206 281.7L1148 442.1Z" fill="#009df2" stroke="#009df2"></path><path d="M712 182.4L577 0L512 134.4Z" fill="#00a6f7" stroke="#00a6f7"></path><path d="M143 161.4L92 284.7L254 267.7Z" fill="#009df2" stroke="#009df2"></path><path d="M92 284.7L0 254.7L0 426.1Z" fill="#0077da" stroke="#0077da"></path><path d="M1206 281.7L1146 245.7L1148 442.1Z" fill="#0094ed" stroke="#0094ed"></path><path d="M437 0L416 113.4L512 134.4Z" fill="#005ac5" stroke="#005ac5"></path><path d="M512 134.4L416 113.4L462 298.7Z" fill="#0094ed" stroke="#0094ed"></path><path d="M333 2771.3L431 2751.3L318 2599.9Z" fill="#008ae7" stroke="#008ae7"></path><path d="M553 2685.3L515 2809.6L655 2690.3Z" fill="#006dd4" stroke="#006dd4"></path><path d="M655 2690.3L834 2752.3L830 2597.9Z" fill="#0080e1" stroke="#0080e1"></path><path d="M1066 135.4L949 324.7L1146 245.7Z" fill="#00a6f7" stroke="#00a6f7"></path><path d="M1400 544.5L1400 386.1L1228 383.1Z" fill="#0094ed" stroke="#0094ed"></path><path d="M416 113.4L259 136.4L254 267.7Z" fill="#005ac5" stroke="#005ac5"></path><path d="M1259 2547.9L1400 2484.5L1296 2467.5Z" fill="#00b9ff" stroke="#00b9ff"></path><path d="M259 136.4L143 161.4L254 267.7Z" fill="#009df2" stroke="#009df2"></path><path d="M0 2447.5L0 2642.9L139 2490.5Z" fill="#0077da" stroke="#0077da"></path><path d="M158 2609.9L333 2771.3L318 2599.9Z" fill="#009df2" stroke="#009df2"></path><path d="M721 2810.6L834 2752.3L655 2690.3Z" fill="#006dd4" stroke="#006dd4"></path><path d="M1259 2547.9L1400 2616.9L1400 2484.5Z" fill="#00b0fb" stroke="#00b0fb"></path><path d="M996 112.4L830 105.4L949 324.7Z" fill="#00b0fb" stroke="#00b0fb"></path><path d="M928 2740.3L1087 2686.3L965 2536.9Z" fill="#0077da" stroke="#0077da"></path><path d="M834 2752.3L928 2740.3L830 2597.9Z" fill="#00b9ff" stroke="#00b9ff"></path><path d="M149 2782.3L333 2771.3L158 2609.9Z" fill="#0080e1" stroke="#0080e1"></path><path d="M431 2751.3L515 2809.6L553 2685.3Z" fill="#008ae7" stroke="#008ae7"></path><path d="M427 2846.6L515 2809.6L431 2751.3Z" fill="#0094ed" stroke="#0094ed"></path><path d="M834 2752.3L859 2879.6L928 2740.3Z" fill="#009df2" stroke="#009df2"></path><path d="M1066 135.4L996 112.4L949 324.7Z" fill="#006dd4" stroke="#006dd4"></path><path d="M1066 135.4L1146 245.7L1280 189.4Z" fill="#00b0fb" stroke="#00b0fb"></path><path d="M1280 189.4L1146 245.7L1206 281.7Z" fill="#00b9ff" stroke="#00b9ff"></path><path d="M515 2809.6L721 2810.6L655 2690.3Z" fill="#005ac5" stroke="#005ac5"></path><path d="M1169 2871.6L1204 2729.3L1087 2686.3Z" fill="#00a6f7" stroke="#00a6f7"></path><path d="M0 2642.9L0 2704.3L158 2609.9Z" fill="#0080e1" stroke="#0080e1"></path><path d="M333 2771.3L427 2846.6L431 2751.3Z" fill="#009df2" stroke="#009df2"></path><path d="M0 2704.3L149 2782.3L158 2609.9Z" fill="#00b9ff" stroke="#00b9ff"></path><path d="M295 2906.6L427 2846.6L333 2771.3Z" fill="#009df2" stroke="#009df2"></path><path d="M515 2809.6L666 3000L721 2810.6Z" fill="#0080e1" stroke="#0080e1"></path><path d="M1400 250.7L1280 189.4L1206 281.7Z" fill="#005ac5" stroke="#005ac5"></path><path d="M928 0L830 105.4L996 112.4Z" fill="#006dd4" stroke="#006dd4"></path><path d="M416 113.4L267 0L259 136.4Z" fill="#0064cc" stroke="#0064cc"></path><path d="M122 0L0 91.4L143 161.4Z" fill="#009df2" stroke="#009df2"></path><path d="M726 0L577 0L712 182.4Z" fill="#008ae7" stroke="#008ae7"></path><path d="M726 0L712 182.4L830 105.4Z" fill="#0080e1" stroke="#0080e1"></path><path d="M577 0L437 0L512 134.4Z" fill="#0080e1" stroke="#0080e1"></path><path d="M1400 386.1L1400 250.7L1228 383.1Z" fill="#00b9ff" stroke="#00b9ff"></path><path d="M847 0L830 105.4L928 0Z" fill="#0064cc" stroke="#0064cc"></path><path d="M847 0L726 0L830 105.4Z" fill="#009df2" stroke="#009df2"></path><path d="M1023 2868.6L1087 2686.3L928 2740.3Z" fill="#006dd4" stroke="#006dd4"></path><path d="M1087 2686.3L1204 2729.3L1125 2561.9Z" fill="#008ae7" stroke="#008ae7"></path><path d="M1400 2693.3L1400 2616.9L1259 2547.9Z" fill="#008ae7" stroke="#008ae7"></path><path d="M928 0L996 112.4L1125 0Z" fill="#00a6f7" stroke="#00a6f7"></path><path d="M0 2851.6L154 2825.6L149 2782.3Z" fill="#00a6f7" stroke="#00a6f7"></path><path d="M149 2782.3L154 2825.6L333 2771.3Z" fill="#0094ed" stroke="#0094ed"></path><path d="M122 0L143 161.4L259 136.4Z" fill="#0064cc" stroke="#0064cc"></path><path d="M143 161.4L0 91.4L0 254.7Z" fill="#0077da" stroke="#0077da"></path><path d="M437 0L267 0L416 113.4Z" fill="#0077da" stroke="#0077da"></path><path d="M1125 0L996 112.4L1066 135.4Z" fill="#008ae7" stroke="#008ae7"></path><path d="M1125 0L1066 135.4L1210 0Z" fill="#0064cc" stroke="#0064cc"></path><path d="M666 3000L859 2879.6L721 2810.6Z" fill="#00b0fb" stroke="#00b0fb"></path><path d="M721 2810.6L859 2879.6L834 2752.3Z" fill="#00b0fb" stroke="#00b0fb"></path><path d="M267 0L122 0L259 136.4Z" fill="#00b0fb" stroke="#00b0fb"></path><path d="M154 2825.6L295 2906.6L333 2771.3Z" fill="#005ac5" stroke="#005ac5"></path><path d="M427 2846.6L515 3000L515 2809.6Z" fill="#006dd4" stroke="#006dd4"></path><path d="M859 2879.6L1023 2868.6L928 2740.3Z" fill="#008ae7" stroke="#008ae7"></path><path d="M1204 2729.3L1400 2693.3L1259 2547.9Z" fill="#0077da" stroke="#0077da"></path><path d="M1270 2913.6L1400 2693.3L1204 2729.3Z" fill="#00a6f7" stroke="#00a6f7"></path><path d="M1210 0L1066 135.4L1280 189.4Z" fill="#006dd4" stroke="#006dd4"></path><path d="M0 2704.3L0 2851.6L149 2782.3Z" fill="#0064cc" stroke="#0064cc"></path><path d="M97 3000L283 3000L295 2906.6Z" fill="#00b0fb" stroke="#00b0fb"></path><path d="M122 0L0 0L0 91.4Z" fill="#006dd4" stroke="#006dd4"></path><path d="M1023 2868.6L1169 2871.6L1087 2686.3Z" fill="#008ae7" stroke="#008ae7"></path><path d="M1102 3000L1169 2871.6L1023 2868.6Z" fill="#009df2" stroke="#009df2"></path><path d="M991 3000L1023 2868.6L859 2879.6Z" fill="#00b9ff" stroke="#00b9ff"></path><path d="M1400 98.4L1210 0L1280 189.4Z" fill="#009df2" stroke="#009df2"></path><path d="M1400 250.7L1400 98.4L1280 189.4Z" fill="#005ac5" stroke="#005ac5"></path><path d="M453 3000L427 2846.6L295 2906.6Z" fill="#00b0fb" stroke="#00b0fb"></path><path d="M453 3000L515 3000L427 2846.6Z" fill="#0077da" stroke="#0077da"></path><path d="M515 3000L666 3000L515 2809.6Z" fill="#0094ed" stroke="#0094ed"></path><path d="M283 3000L453 3000L295 2906.6Z" fill="#00b0fb" stroke="#00b0fb"></path><path d="M666 3000L838 3000L859 2879.6Z" fill="#005ac5" stroke="#005ac5"></path><path d="M97 3000L295 2906.6L154 2825.6Z" fill="#0077da" stroke="#0077da"></path><path d="M838 3000L991 3000L859 2879.6Z" fill="#0080e1" stroke="#0080e1"></path><path d="M1218 3000L1270 2913.6L1169 2871.6Z" fill="#00a6f7" stroke="#00a6f7"></path><path d="M1169 2871.6L1270 2913.6L1204 2729.3Z" fill="#00b9ff" stroke="#00b9ff"></path><path d="M0 2851.6L97 3000L154 2825.6Z" fill="#00a6f7" stroke="#00a6f7"></path><path d="M1400 98.4L1400 0L1210 0Z" fill="#0064cc" stroke="#0064cc"></path><path d="M991 3000L1102 3000L1023 2868.6Z" fill="#006dd4" stroke="#006dd4"></path><path d="M0 2851.6L0 3000L97 3000Z" fill="#0080e1" stroke="#0080e1"></path><path d="M1400 3000L1400 2902.6L1270 2913.6Z" fill="#006dd4" stroke="#006dd4"></path><path d="M1270 2913.6L1400 2902.6L1400 2693.3Z" fill="#00a6f7" stroke="#00a6f7"></path><path d="M1102 3000L1218 3000L1169 2871.6Z" fill="#00a6f7" stroke="#00a6f7"></path><path d="M1218 3000L1400 3000L1270 2913.6Z" fill="#0080e1" stroke="#0080e1"></path></g></svg>